<svg id="visual" viewBox="0 0 1920 1080" width="1920" height="1080" xmlns="http://www.w3.org/2000/svg" xmlns:xlink="http://www.w3.org/1999/xlink" version="1.1"><rect width="1920" height="1080" fill="#001829"></rect><g><g transform="translate(1109 474)"><path d="M0 -117.5L101.7 -58.7L101.7 58.7L0 117.5L-101.7 58.7L-101.7 -58.7Z" fill="none" stroke="#FDC059" stroke-width="2"></path></g><g transform="translate(809 1051)"><path d="M0 -81L70.1 -40.5L70.1 40.5L0 81L-70.1 40.5L-70.1 -40.5Z" fill="none" stroke="#FDC059" stroke-width="2"></path></g><g transform="translate(1694 594)"><path d="M0 -38L32.9 -19L32.9 19L0 38L-32.9 19L-32.9 -19Z" fill="none" stroke="#FDC059" stroke-width="2"></path></g><g transform="translate(1747 315)"><path d="M0 -87L75.3 -43.5L75.3 43.5L0 87L-75.3 43.5L-75.3 -43.5Z" fill="none" stroke="#FDC059" stroke-width="2"></path></g><g transform="translate(265 404)"><path d="M0 -114L98.7 -57L98.7 57L0 114L-98.7 57L-98.7 -57Z" fill="none" stroke="#FDC059" stroke-width="2"></path></g><g transform="translate(441 845)"><path d="M0 -98L84.9 -49L84.9 49L0 98L-84.9 49L-84.9 -49Z" fill="none" stroke="#FDC059" stroke-width="2"></path></g><g transform="translate(1231 1058)"><path d="M0 -69L59.8 -34.5L59.8 34.5L0 69L-59.8 34.5L-59.8 -34.5Z" fill="none" stroke="#FDC059" stroke-width="2"></path></g><g transform="translate(1331 108)"><path d="M0 -31L26.8 -15.5L26.8 15.5L0 31L-26.8 15.5L-26.8 -15.5Z" fill="none" stroke="#FDC059" stroke-width="2"></path></g><g transform="translate(399 128)"><path d="M0 -41L35.5 -20.5L35.5 20.5L0 41L-35.5 20.5L-35.5 -20.5Z" fill="none" stroke="#FDC059" stroke-width="2"></path></g><g transform="translate(73 905)"><path d="M0 -41L35.5 -20.5L35.5 20.5L0 41L-35.5 20.5L-35.5 -20.5Z" fill="none" stroke="#FDC059" stroke-width="2"></path></g><g transform="translate(1668 917)"><path d="M0 -59L51.1 -29.5L51.1 29.5L0 59L-51.1 29.5L-51.1 -29.5Z" fill="none" stroke="#FDC059" stroke-width="2"></path></g><g transform="translate(1404 520)"><path d="M0 -89L77.1 -44.5L77.1 44.5L0 89L-77.1 44.5L-77.1 -44.5Z" fill="none" stroke="#FDC059" stroke-width="2"></path></g><g transform="translate(510 503)"><path d="M0 -50L43.3 -25L43.3 25L0 50L-43.3 25L-43.3 -25Z" fill="none" stroke="#FDC059" stroke-width="2"></path></g><g transform="translate(309 649)"><path d="M0 -69L59.8 -34.5L59.8 34.5L0 69L-59.8 34.5L-59.8 -34.5Z" fill="none" stroke="#FDC059" stroke-width="2"></path></g><g transform="translate(999 5)"><path d="M0 -113L97.9 -56.5L97.9 56.5L0 113L-97.9 56.5L-97.9 -56.5Z" fill="none" stroke="#FDC059" stroke-width="2"></path></g><g transform="translate(11 331)"><path d="M0 -60L52 -30L52 30L0 60L-52 30L-52 -30Z" fill="none" stroke="#FDC059" stroke-width="2"></path></g><g transform="translate(831 578)"><path d="M0 -104L90.1 -52L90.1 52L0 104L-90.1 52L-90.1 -52Z" fill="none" stroke="#FDC059" stroke-width="2"></path></g><g transform="translate(706 45)"><path d="M0 -103L89.2 -51.5L89.2 51.5L0 103L-89.2 51.5L-89.2 -51.5Z" fill="none" stroke="#FDC059" stroke-width="2"></path></g><g transform="translate(1664 85)"><path d="M0 -51L44.2 -25.5L44.2 25.5L0 51L-44.2 25.5L-44.2 -25.5Z" fill="none" stroke="#FDC059" stroke-width="2"></path></g><g transform="translate(126 69)"><path d="M0 -32L27.7 -16L27.7 16L0 32L-27.7 16L-27.7 -16Z" fill="none" stroke="#FDC059" stroke-width="2"></path></g><g transform="translate(1042 713)"><path d="M0 -40L34.6 -20L34.6 20L0 40L-34.6 20L-34.6 -20Z" fill="none" stroke="#FDC059" stroke-width="2"></path></g><g transform="translate(866 298)"><path d="M0 -30L26 -15L26 15L0 30L-26 15L-26 -15Z" stroke="#FDC059" fill="none" stroke-width="2"></path></g><g transform="translate(1372 813)"><path d="M0 -79L68.4 -39.5L68.4 39.5L0 79L-68.4 39.5L-68.4 -39.5Z" stroke="#FDC059" fill="none" stroke-width="2"></path></g><g transform="translate(704 786)"><path d="M0 -34L29.4 -17L29.4 17L0 34L-29.4 17L-29.4 -17Z" stroke="#FDC059" fill="none" stroke-width="2"></path></g><g transform="translate(39 634)"><path d="M0 -111L96.1 -55.5L96.1 55.5L0 111L-96.1 55.5L-96.1 -55.5Z" stroke="#FDC059" fill="none" stroke-width="2"></path></g><g transform="translate(1870 1065)"><path d="M0 -112L97 -56L97 56L0 112L-97 56L-97 -56Z" stroke="#FDC059" fill="none" stroke-width="2"></path></g><g transform="translate(287 1074)"><path d="M0 -82L71 -41L71 41L0 82L-71 41L-71 -41Z" stroke="#FDC059" fill="none" stroke-width="2"></path></g><g transform="translate(1910 704)"><path d="M0 -43L37.2 -21.5L37.2 21.5L0 43L-37.2 21.5L-37.2 -21.5Z" stroke="#FDC059" fill="none" stroke-width="2"></path></g><g transform="translate(1491 292)"><path d="M0 -93L80.5 -46.5L80.5 46.5L0 93L-80.5 46.5L-80.5 -46.5Z" stroke="#FDC059" fill="none" stroke-width="2"></path></g><g transform="translate(1918 50)"><path d="M0 -40L34.6 -20L34.6 20L0 40L-34.6 20L-34.6 -20Z" stroke="#FDC059" fill="none" stroke-width="2"></path></g><g transform="translate(550 1069)"><path d="M0 -68L58.9 -34L58.9 34L0 68L-58.9 34L-58.9 -34Z" stroke="#FDC059" fill="none" stroke-width="2"></path></g><g transform="translate(628 282)"><path d="M0 -116L100.5 -58L100.5 58L0 116L-100.5 58L-100.5 -58Z" stroke="#FDC059" fill="none" stroke-width="2"></path></g></g></svg>